<svg xmlns="http://www.w3.org/2000/svg" viewBox="0 0 1440 320">
  <path fill="#0187E0" fill-opacity="0.20" d="M0,224L8.6,197.3C17.1,171,34,117,51,117.3C68.6,117,86,171,103,192C120,213,137,203,154,186.7C171.4,171,189,149,206,160C222.9,171,240,213,257,208C274.3,203,291,149,309,149.3C325.7,149,343,203,360,224C377.1,245,394,235,411,240C428.6,245,446,267,463,272C480,277,497,267,514,256C531.4,245,549,235,566,202.7C582.9,171,600,117,617,90.7C634.3,64,651,64,669,64C685.7,64,703,64,720,106.7C737.1,149,754,235,771,250.7C788.6,267,806,213,823,170.7C840,128,857,96,874,122.7C891.4,149,909,235,926,240C942.9,245,960,171,977,165.3C994.3,160,1011,224,1029,250.7C1045.7,277,1063,267,1080,240C1097.1,213,1114,171,1131,138.7C1148.6,107,1166,85,1183,106.7C1200,128,1217,192,1234,181.3C1251.4,171,1269,85,1286,53.3C1302.9,21,1320,43,1337,74.7C1354.3,107,1371,149,1389,154.7C1405.7,160,1423,128,1431,112L1440,96L1440,320L1431.4,320C1422.9,320,1406,320,1389,320C1371.4,320,1354,320,1337,320C1320,320,1303,320,1286,320C1268.6,320,1251,320,1234,320C1217.1,320,1200,320,1183,320C1165.7,320,1149,320,1131,320C1114.3,320,1097,320,1080,320C1062.9,320,1046,320,1029,320C1011.4,320,994,320,977,320C960,320,943,320,926,320C908.6,320,891,320,874,320C857.1,320,840,320,823,320C805.7,320,789,320,771,320C754.3,320,737,320,720,320C702.9,320,686,320,669,320C651.4,320,634,320,617,320C600,320,583,320,566,320C548.6,320,531,320,514,320C497.1,320,480,320,463,320C445.7,320,429,320,411,320C394.3,320,377,320,360,320C342.9,320,326,320,309,320C291.4,320,274,320,257,320C240,320,223,320,206,320C188.6,320,171,320,154,320C137.1,320,120,320,103,320C85.7,320,69,320,51,320C34.3,320,17,320,9,320L0,320Z"></path>
</svg>
